<svg width="32" height="32" xmlns="http://www.w3.org/2000/svg">
 <g stroke="null">
  <title>background</title>
  <rect x="-1" y="-1" width="3.21028" height="3.21028" id="canvas_background" fill="none" stroke="null"/>
 </g>

 <g stroke="null">
  <title>Layer 1</title>
  <path stroke="null" d="m16,19.531035c2.333083,0 4.20236,-1.892635 4.20236,-4.237242l0.014055,-8.474486c0,-2.344608 -1.883332,-4.237242 -4.216415,-4.237242s-4.216415,1.892635 -4.216415,4.237242l0,8.474486c0,2.344608 1.883332,4.237242 4.216415,4.237242zm7.448999,-4.237242c0,4.237242 -3.569897,7.203312 -7.448999,7.203312s-7.448999,-2.96607 -7.448999,-7.203312l-2.389302,0c0,4.816332 3.822883,8.799341 8.432829,9.491424l0,4.632719l2.810943,0l0,-4.632719c4.609947,-0.677959 8.432829,-4.660967 8.432829,-9.491424l-2.389302,0z" id="svg_1" fill="#ffffff"/>
 </g>
</svg>