<svg width="32" height="32" xmlns="http://www.w3.org/2000/svg">

 <g>
  <title>background</title>
  <rect fill="none" id="canvas_background" height="34" width="34" y="-1" x="-1"/>
 </g>
 <g>
  <title>Layer 1</title>
  <path fill="#ffffff" stroke="null" id="svg_2" d="m24.132097,12.644733l0,-4.697373c0,-0.738159 -0.609907,-1.342107 -1.355349,-1.342107l-18.974892,0c-0.745442,0 -1.355349,0.603948 -1.355349,1.342107l0,16.10528c0,0.738159 0.609907,1.342107 1.355349,1.342107l18.974892,0c0.745442,0 1.355349,-0.603948 1.355349,-1.342107l0,-4.697373l5.421398,5.368427l0,-17.447387l-5.421398,5.368427zm-6.776747,8.05264l0,-3.355267l-8.132097,0l0,3.355267l-4.743723,-4.697373l4.743723,-4.697373l0,3.355267l8.132097,0l0,-3.355267l4.743723,4.697373l-4.743723,4.697373z"/>
 </g>
</svg>