<svg width="32" height="32" xmlns="http://www.w3.org/2000/svg">
 <g>
  <title>background</title>
  <rect x="-1" y="-1" width="3.235998" height="3.235998" id="canvas_background" fill="none"/>
 </g>

 <g>
  <title>Layer 1</title>
  <path d="m0.056148,0l32,0l0,32l-32,0l0,-32z" fill="none" id="svg_1"/>
  <path stroke="null" d="m16,13.008987c-2.036392,0 -4.009147,0.307718 -5.854628,0.886226l0,3.815694c0,0.480038 -0.292731,0.910843 -0.712738,1.107782c-1.24729,0.603126 -2.380033,1.378573 -3.385502,2.277108c-0.229094,0.221556 -0.54728,0.344644 -0.890921,0.344644c-0.356369,0 -0.674554,-0.135396 -0.903649,-0.356952l-3.156408,-3.052555c-0.229094,-0.209248 -0.369096,-0.516965 -0.369096,-0.861608c0,-0.344644 0.140002,-0.65236 0.369096,-0.873917c3.881872,-3.557211 9.125582,-5.748159 14.903846,-5.748159s11.021972,2.190946 14.903846,5.748159c0.229094,0.221556 0.369096,0.529274 0.369096,0.873917c0,0.344644 -0.140002,0.65236 -0.369096,0.873917l-3.156408,3.052555c-0.229094,0.221556 -0.54728,0.356952 -0.903649,0.356952c-0.343641,0 -0.661828,-0.135396 -0.890921,-0.344644c-1.005469,-0.910843 -2.150939,-1.673982 -3.39823,-2.277108c-0.420006,-0.196939 -0.712738,-0.615434 -0.712738,-1.107782l0,-3.815694c-1.832753,-0.590817 -3.805508,-0.898535 -5.8419,-0.898535l0,-0.000001z" id="svg_2" fill="#ffffff"/>
 </g>
</svg>