<?xml version="1.0" encoding="iso-8859-1"?>
<!-- Generator: Adobe Illustrator 19.0.0, SVG Export Plug-In . SVG Version: 6.00 Build 0)  -->
<svg version="1.1" id="Layer_1" xmlns="http://www.w3.org/2000/svg" xmlns:xlink="http://www.w3.org/1999/xlink" x="0px" y="0px"
	 viewBox="0 0 512 512" style="enable-background:new 0 0 512 512;" xml:space="preserve">
<g>
	<g>
		<path d="M0,0v512h512V0H0z M195.048,420.571v36.571H54.857v-140.19h36.571v77.762l102.88-102.88l25.86,25.86L117.291,420.571
			H195.048z M194.309,220.17L91.429,117.291v77.757H54.857V54.857h140.19v36.571h-77.762L220.169,194.31L194.309,220.17z
			 M457.143,457.143h-140.19v-36.571h77.757l-102.878-102.88l25.86-25.86l102.88,102.883v-77.762h36.571V457.143z M457.143,195.048
			h-36.571v-77.757l-102.88,102.88l-25.86-25.86L394.714,91.429h-77.762V54.857h140.19V195.048z"/>
	</g>
</g>
<g>
</g>
<g>
</g>
<g>
</g>
<g>
</g>
<g>
</g>
<g>
</g>
<g>
</g>
<g>
</g>
<g>
</g>
<g>
</g>
<g>
</g>
<g>
</g>
<g>
</g>
<g>
</g>
<g>
</g>
</svg>
