<svg id="Capa_1" enable-background="new 0 0 497 497" width="32" height="32" viewBox="0 0 497 497" xmlns="http://www.w3.org/2000/svg"><g><path d="m451 350h-406c-24.853 0-44-20.147-44-45v-113c0-14.265 5.637-27.98 15.993-36.224 7.685-6.119 17.419-9.776 28.007-9.776h407c24.853 0 45 20.147 45 45v115c0 10.588-3.657 20.322-9.776 28.008-8.244 10.355-21.959 15.992-36.224 15.992z" fill="#ee6161"/><path d="m49 334c-17.673 0-32-14.327-32-32v-146.215c-10.355 8.245-17 20.95-17 35.215v115c0 24.853 20.147 45 45 45h407c14.265 0 26.97-6.645 35.215-17z" fill="#e94444"/><path d="m307.912 285.785h-26.838c-1.657 0-3-1.343-3-3v-16.178c0-1.657 1.343-3 3-3h23.532c8.284 0 15-6.764 15-15.107s-6.716-15.107-15-15.107h-23.532c-1.657 0-3-1.343-3-3v-16.178c0-1.657 1.343-3 3-3h26.838c8.284 0 15-6.764 15-15.107s-6.716-15.107-15-15.107h-44.838c-8.284 0-14 7.764-14 16.107v102.785c0 8.343 5.716 16.107 14 16.107h44.838c8.284 0 15-6.764 15-15.107 0-8.344-6.716-15.108-15-15.108z" fill="#f9f8f9"/><path d="m263.074 181c-8.284 0-15 6.764-15 15.107v104.785c0 8.344 6.716 15.107 15 15.107z" fill="#efedef"/><g><g><path d="m418.172 315c-37.879 0-67.696-29.28-67.696-66.5 0-22.506 10.268-42.475 27.551-54.745 11.3-8.022 25.17-12.755 40.145-12.755 13.708 0 26.948 3.959 38.289 11.449 6.913 4.565 8.815 13.87 4.25 20.783-4.566 6.912-13.872 8.813-20.783 4.25-6.421-4.241-13.944-6.482-21.756-6.482-21.337 0-38.696 16.822-38.696 37.5s17.359 37.5 38.696 37.5c7.885 0 14.486-2.267 19.619-6.736.995-.866 1.944-1.824 2.824-2.85 5.395-6.288 14.863-7.013 21.151-1.62 6.288 5.394 7.013 14.863 1.619 21.151-.368.43-.743.854-1.124 1.273-1.505 1.654-4.104 3.22-5.769 4.67-10.602 9.232-23.198 13.112-38.32 13.112z" fill="#f9f8f9"/></g></g><g><path d="m430.172 306c-37.879 0-68.696-30.28-68.696-67.5 0-17.846 7.098-34.085 18.649-46.167-18.461 12.114-30.649 32.765-30.649 56.167 0 37.22 30.817 67.5 68.696 67.5 15.122 0 28.719-4.88 39.32-14.112 1.665-1.449 3.26-3.02 4.764-4.674-9.282 5.764-20.209 8.786-32.084 8.786z" fill="#efedef"/></g><path d="m191.865 266.128c-1.353-1.503-.858-3.883.981-4.726 14.913-6.836 25.229-21.35 25.229-38.113 0-23.317-19.958-42.288-44.49-42.288h-28.538c-.006 0-.012.001-.018.001l-.018-.002c-8.25-.463-14 6.919-14 15.182v103.395c0 8.077 5.207 16.027 13.275 16.407 8.614.406 15.725-6.458 15.725-14.983v-17.601c0-2.749 3.39-6.05 5.23-4.007l27.684 30.643c2.962 3.291 6.049 4.965 10.153 4.965 2.342 0 4.69.454 6.838-.648 1.13-.58 2.205-1.314 3.193-2.204 6.157-5.543 6.655-15.027 1.113-21.184zm-18.281-55.128c.506 0 1.007.023 1.502.069 7.18.661 13.988 3.069 13.988 12.219 0 9.318-6.732 11.49-13.899 12.207-.544.054-1.096.082-1.654.082l-10.344.044c-1.658.007-3.007-1.332-3.013-2.989l-.068-18.621c-.006-1.661 1.339-3.011 3-3.011z" fill="#f9f8f9"/><g fill="#efedef"><path d="m175.174 235.488.001.146 8.346-.057c7.918 0 14.553-5.628 14.553-12.289s-6.635-12.288-14.49-12.288h-8.499v.071c7.18.661 12.988 5.986 12.988 12.217.001 6.191-5.733 11.483-12.899 12.2z"/><path d="m160.029 181.001c.006 0 .012-.001.018-.001h-.035z"/><path d="m209.911 314.342-40.295-44.802c-3.377-3.754-9.604-1.366-9.604 3.684v10.174c-.002-.325.043-.878.357-1.441.625-1.12 2.044-1.785 3.339-1.488.783.179 1.298.659 1.549.938 8.89 9.876 17.78 19.751 26.669 29.627 2.962 3.291 7.049 4.965 11.153 4.965 2.583.001 5.136-.722 6.832-1.657z"/><path d="m145.011 307.726v-126.726c-8.25-.463-15 5.918-15 14.182v105.395c0 8.077 6.207 15.027 14.275 15.407.297.014.588-.001.881-.004-.101-3.144-.156-8.041-.156-8.254z"/></g><path d="m99.011 248.5c0-18.613-15.089-33.702-33.702-33.702-4.09 0-8.011.729-11.638 2.063-12.878 4.739-21.064 17.116-21.064 31.639 0 18.613 14.089 32.702 32.702 32.702 14.523 0 26.9-8.186 31.639-21.064 1.335-3.627 2.063-7.548 2.063-11.638z" fill="#f9f8f9"/><path d="m85.309 262.202c-18.613 0-33.702-15.089-33.702-33.702 0-4.091.73-8.01 2.065-11.637-12.878 4.739-22.065 17.115-22.065 31.637 0 18.613 15.089 33.702 33.702 33.702 14.523 0 26.899-9.186 31.638-22.065-3.627 1.335-7.547 2.065-11.638 2.065z" fill="#efedef"/></g></svg>