<?xml version="1.0" encoding="iso-8859-1"?>
<!-- Generator: Adobe Illustrator 19.0.0, SVG Export Plug-In . SVG Version: 6.00 Build 0)  -->
<svg version="1.1" id="Layer_1" xmlns="http://www.w3.org/2000/svg" xmlns:xlink="http://www.w3.org/1999/xlink" x="0px" y="0px"
	 viewBox="0 0 512 512" style="enable-background:new 0 0 512 512;" xml:space="preserve">
<g>
	<g>
		<g>
			<path style="fill:#231F20;" d="M365.157,434.238H146.843c-10.765,0-19.492,8.727-19.492,19.492
				c0,10.765,8.727,19.492,19.492,19.492h218.315c10.765,0,19.492-8.727,19.492-19.492
				C384.65,442.966,375.922,434.238,365.157,434.238z"/>
			<path style="fill:#231F20;" d="M479.513,38.777H32.487C14.574,38.777,0,53.351,0,71.264v293.789
				c0,17.914,14.574,32.487,32.487,32.487h447.025c17.914,0,32.487-14.574,32.487-32.487V71.264
				C512,53.351,497.426,38.777,479.513,38.777z M425.367,370.779c-5.645,0-10.222-4.577-10.222-10.222
				c0-5.645,4.577-10.222,10.222-10.222c5.645,0,10.222,4.577,10.222,10.222C435.589,366.202,431.013,370.779,425.367,370.779z
				 M460.02,304.081c0,10.765-8.727,19.492-19.492,19.492H71.472c-10.765,0-19.492-8.727-19.492-19.492V110.249
				c0-10.765,8.727-19.492,19.492-19.492h369.056c10.765,0,19.492,8.727,19.492,19.492V304.081z"/>
		</g>
	</g>
</g>
<g>
</g>
<g>
</g>
<g>
</g>
<g>
</g>
<g>
</g>
<g>
</g>
<g>
</g>
<g>
</g>
<g>
</g>
<g>
</g>
<g>
</g>
<g>
</g>
<g>
</g>
<g>
</g>
<g>
</g>
</svg>
