<svg width="32" height="32" xmlns="http://www.w3.org/2000/svg">

 <g>
  <title>background</title>
  <rect fill="none" id="canvas_background" height="34" width="34" y="-1" x="-1"/>
 </g>
 <g>
  <title>Layer 1</title>
  <path id="svg_1" fill="none" d="m0,0l24,0l0,24l-24,0l0,-24z"/>
  <path stroke="null" fill="#ffffff" transform="rotate(-0.001465510344132781 15.927804946990042,15.92780494695008) " id="svg_2" d="m27.496603,20.836042c-1.776482,0 -3.495192,-0.290428 -5.098359,-0.813199c-0.505503,-0.174257 -1.068778,-0.043564 -1.458737,0.348514l-2.267542,2.860719c-4.087353,-1.960391 -7.914733,-5.663352 -9.951188,-9.918126l2.816374,-2.410555c0.389959,-0.4066 0.505503,-0.972935 0.346631,-1.481184c-0.534389,-1.611877 -0.808805,-3.339925 -0.808805,-5.126059c0,-0.784156 -0.649932,-1.43762 -1.429851,-1.43762l-4.997259,0c-0.779919,0 -1.71871,0.348514 -1.71871,1.43762c0,13.490394 11.164395,24.700927 24.567447,24.700927c1.025449,0 1.429851,-0.914849 1.429851,-1.713527l0,-5.009888c0,-0.784156 -0.649932,-1.43762 -1.429851,-1.43762z"/>
  <path id="svg_3" d="m6.127409,7.539517" opacity="0.5" fill-opacity="null" stroke-opacity="null" stroke-width="null" stroke="null" fill="null"/>
 </g>
</svg>