<svg width="32" height="32" viewBox="0 -17 512 512" xmlns="http://www.w3.org/2000/svg">
    <path d="m8.535156 332.800781c-4.714844 0-8.535156 3.820313-8.535156 8.53125v17.066407c0 4.714843 3.820312 8.535156 8.535156 8.535156 4.710938 0 8.53125-3.820313 8.53125-8.535156v-17.066407c0-4.710937-3.820312-8.53125-8.53125-8.53125zm0 0"/><path d="m42.667969 366.933594v-34.132813c0-4.714843-3.820313-8.535156-8.535157-8.535156-4.710937 0-8.53125 3.820313-8.53125 8.535156v34.132813c0 4.710937 3.820313 8.53125 8.53125 8.53125 4.714844 0 8.535157-3.820313 8.535157-8.53125zm0 0"/><path d="m136.535156 324.265625c-4.714844 0-8.535156 3.820313-8.535156 8.535156v34.132813c0 4.710937 3.820312 8.53125 8.535156 8.53125 4.710938 0 8.53125-3.820313 8.53125-8.53125v-34.132813c0-4.714843-3.820312-8.535156-8.53125-8.535156zm0 0"/><path d="m76.800781 384v-68.265625c0-4.714844-3.820312-8.535156-8.535156-8.535156-4.710937 0-8.53125 3.820312-8.53125 8.535156v68.265625c0 4.710938 3.820313 8.535156 8.53125 8.535156 4.714844 0 8.535156-3.824218 8.535156-8.535156zm0 0"/><path d="m102.398438 307.199219c-4.710938 0-8.53125 3.820312-8.53125 8.535156v68.265625c0 4.710938 3.820312 8.535156 8.53125 8.535156 4.714843 0 8.535156-3.824218 8.535156-8.535156v-68.265625c0-4.714844-3.820313-8.535156-8.535156-8.535156zm0 0"/><path d="m179.199219 401.066406v-102.398437c0-4.714844-3.820313-8.535157-8.53125-8.535157-4.714844 0-8.535157 3.820313-8.535157 8.535157v102.398437c0 4.714844 3.820313 8.535156 8.535157 8.535156 4.710937 0 8.53125-3.820312 8.53125-8.535156zm0 0"/><path d="m213.332031 418.132812v-136.53125c0-4.714843-3.820312-8.535156-8.53125-8.535156-4.714843 0-8.535156 3.820313-8.535156 8.535156v136.53125c0 4.714844 3.820313 8.535157 8.535156 8.535157 4.710938 0 8.53125-3.820313 8.53125-8.535157zm0 0"/><path d="m247.464844 469.332031v-238.933593c0-4.710938-3.820313-8.53125-8.53125-8.53125-4.714844 0-8.535156 3.820312-8.535156 8.53125v238.933593c0 4.714844 3.820312 8.535157 8.535156 8.535157 4.710937 0 8.53125-3.820313 8.53125-8.535157zm0 0"/><path d="m503.464844 332.800781c-4.710938 0-8.53125 3.820313-8.53125 8.53125v17.066407c0 4.714843 3.820312 8.535156 8.53125 8.535156 4.714844 0 8.535156-3.820313 8.535156-8.535156v-17.066407c0-4.710937-3.820312-8.53125-8.535156-8.53125zm0 0"/><path d="m477.867188 324.265625c-4.714844 0-8.535157 3.820313-8.535157 8.535156v34.132813c0 4.710937 3.820313 8.53125 8.535157 8.53125 4.710937 0 8.53125-3.820313 8.53125-8.53125v-34.132813c0-4.714843-3.820313-8.535156-8.53125-8.535156zm0 0"/><path d="m375.464844 375.464844c4.714844 0 8.535156-3.820313 8.535156-8.53125v-34.132813c0-4.714843-3.820312-8.535156-8.535156-8.535156-4.710938 0-8.53125 3.820313-8.53125 8.535156v34.132813c0 4.710937 3.820312 8.53125 8.53125 8.53125zm0 0"/><path d="m435.199219 315.734375v68.265625c0 4.710938 3.820312 8.535156 8.535156 8.535156 4.710937 0 8.53125-3.824218 8.53125-8.535156v-68.265625c0-4.714844-3.820313-8.535156-8.53125-8.535156-4.714844 0-8.535156 3.820312-8.535156 8.535156zm0 0"/><path d="m418.132812 384v-68.265625c0-4.714844-3.820312-8.535156-8.53125-8.535156-4.714843 0-8.535156 3.820312-8.535156 8.535156v68.265625c0 4.710938 3.820313 8.535156 8.535156 8.535156 4.710938 0 8.53125-3.824218 8.53125-8.535156zm0 0"/><path d="m349.867188 401.066406v-102.398437c0-4.714844-3.820313-8.535157-8.535157-8.535157-4.710937 0-8.53125 3.820313-8.53125 8.535157v102.398437c0 4.714844 3.820313 8.535156 8.53125 8.535156 4.714844 0 8.535157-3.820312 8.535157-8.535156zm0 0"/><path d="m315.734375 418.132812v-136.53125c0-4.714843-3.820313-8.535156-8.535156-8.535156-4.710938 0-8.53125 3.820313-8.53125 8.535156v136.53125c0 4.714844 3.820312 8.535157 8.53125 8.535157 4.714843 0 8.535156-3.820313 8.535156-8.535157zm0 0"/><path d="m281.601562 469.332031v-238.933593c0-4.710938-3.820312-8.53125-8.535156-8.53125-4.710937 0-8.53125 3.820312-8.53125 8.53125v238.933593c0 4.714844 3.820313 8.535157 8.53125 8.535157 4.714844 0 8.535156-3.820313 8.535156-8.535157zm0 0"/><path d="m375.464844 34.132812h-134.195313c14.78125 12.910157 23.265625 31.574219 23.265625 51.199219s-8.484375 38.292969-23.265625 51.203125h134.195313c28.277344 0 51.203125-22.925781 51.203125-51.203125 0-28.277343-22.925781-51.199219-51.203125-51.199219zm0 0"/><path d="m145.066406 85.332031c0 4.714844-3.820312 8.535157-8.53125 8.535157-4.714844 0-8.535156-3.820313-8.535156-8.535157 0-4.710937 3.820312-8.53125 8.535156-8.53125 4.710938 0 8.53125 3.820313 8.53125 8.53125zm0 0"/><path d="m196.265625 34.132812h-59.730469c-28.277344 0-51.203125 22.921876-51.203125 51.199219 0 28.277344 22.925781 51.203125 51.203125 51.203125h59.730469c28.277344 0 51.199219-22.925781 51.199219-51.203125 0-28.277343-22.921875-51.199219-51.199219-51.199219zm-59.730469 76.800782c-14.140625 0-25.601562-11.460938-25.601562-25.601563 0-14.136719 11.460937-25.597656 25.601562-25.597656 14.136719 0 25.597656 11.460937 25.597656 25.597656-.015624 14.132813-11.46875 25.585938-25.597656 25.601563zm85.332032-8.535156c0 3.453124-2.082032 6.5625-5.269532 7.882812s-6.855468.589844-9.296875-1.847656l-19.566406-19.566406v13.53125c0 4.714843-3.820313 8.535156-8.535156 8.535156-4.710938 0-8.53125-3.820313-8.53125-8.535156v-34.132813c0-3.449219 2.078125-6.558594 5.265625-7.882813 3.1875-1.320312 6.859375-.589843 9.300781 1.851563l19.566406 19.566406v-13.535156c0-4.710937 3.820313-8.53125 8.53125-8.53125 4.714844 0 8.535157 3.820313 8.535157 8.53125zm0 0"/><path d="m375.464844 0h-238.929688c-47.128906 0-85.335937 38.203125-85.335937 85.332031 0 47.128907 38.207031 85.335938 85.335937 85.335938h238.929688c47.128906 0 85.335937-38.207031 85.335937-85.335938 0-47.128906-38.207031-85.332031-85.335937-85.332031zm0 153.601562h-238.929688c-37.703125 0-68.269531-30.566406-68.269531-68.269531s30.566406-68.265625 68.269531-68.265625h238.929688c37.703125 0 68.269531 30.5625 68.269531 68.265625s-30.566406 68.269531-68.269531 68.269531zm0 0"/>
</svg>