<?xml version="1.0" encoding="utf-8"?>
<!-- Generator: Adobe Illustrator 24.1.1, SVG Export Plug-In . SVG Version: 6.00 Build 0)  -->
<svg width="32" height="32" version="1.1" id="Layer_1" xmlns="http://www.w3.org/2000/svg" xmlns:xlink="http://www.w3.org/1999/xlink" x="0px" y="0px"
	 viewBox="0 0 512 512" style="enable-background:new 0 0 512 512;" xml:space="preserve">
<style type="text/css">
	.st0{fill-rule:evenodd;clip-rule:evenodd;}
</style>
<g>
	<path class="st0" fill="#ffffff" d="M74,102.4c-22,0-39.8,17.8-39.8,39.8v227.5c0,22,17.8,39.8,39.8,39.8h227.5c22,0,39.8-17.8,39.8-39.8V142.2
		c0-22-17.8-39.8-39.8-39.8H74z M0,142.2c0-40.9,33.1-74,74-74h227.5c40.9,0,74,33.1,74,74v227.5c0,40.9-33.1,74-74,74H74
		c-40.9,0-74-33.1-74-74V142.2z"/>
	<path class="st0" fill="#ffffff" d="M366.9,175.8l94.5-54.8c5.1-3.1,11.8-1.4,14.9,3.7l1.6,5.3v252c0,7.8-8.9,13.4-16.4,9L367,336.2l-17.2,29.5
		l94.5,54.8c29.3,17,67.7-3.2,67.7-38.5V130c0-35.3-38.4-55.5-67.7-38.5l-94.4,54.8L366.9,175.8L366.9,175.8z"/>
</g>
</svg>
